<?xml version="1.0" standalone="no"?>
<!DOCTYPE svg PUBLIC "-//W3C//DTD SVG 20010904//EN"
 "http://www.w3.org/TR/2001/REC-SVG-20010904/DTD/svg10.dtd">
<svg version="1.0" xmlns="http://www.w3.org/2000/svg"
 width="1600.000000pt" height="1600.000000pt" viewBox="0 0 1600.000000 1600.000000"
 preserveAspectRatio="xMidYMid meet">
<metadata>
Created by potrace 1.11, written by Peter Selinger 2001-2013
</metadata>
<g transform="translate(0.000000,1600.000000) scale(0.100000,-0.100000)"
fill="#000000" stroke="none">
<path d="M3059 15046 c-2 -2 -35 -6 -74 -9 -59 -5 -114 -14 -251 -41 -167 -33
-426 -147 -606 -266 -370 -245 -637 -600 -774 -1028 -20 -63 -32 -116 -59
-252 -21 -104 -28 -413 -12 -540 38 -308 168 -621 376 -900 45 -61 217 -265
329 -389 115 -129 203 -281 223 -384 6 -35 11 -257 13 -560 2 -490 3 -504 25
-572 57 -176 187 -324 352 -398 119 -54 170 -59 610 -55 387 4 406 5 464 26
190 71 293 158 388 334 24 43 35 76 53 153 4 17 8 246 9 510 2 264 6 502 10
530 9 68 50 168 98 240 39 58 141 190 163 210 5 6 34 39 64 75 30 36 59 70 65
75 20 19 132 160 182 231 75 105 165 258 207 351 32 72 92 228 93 243 1 3 6
25 13 50 7 25 14 54 16 65 2 11 6 31 9 45 26 130 33 228 30 395 -2 88 -6 171
-8 185 -3 14 -8 43 -11 65 -27 183 -96 395 -182 563 -274 532 -760 900 -1344
1017 -8 1 -40 6 -70 10 -30 4 -64 9 -75 12 -26 5 -321 14 -326 9z m399 -665
c570 -127 983 -642 985 -1231 2 -343 -96 -579 -372 -900 -31 -36 -58 -67 -61
-70 -20 -18 -182 -217 -232 -283 -66 -89 -143 -216 -177 -292 l-22 -50 -402 0
-401 0 -51 100 c-85 169 -177 293 -390 531 -97 108 -196 230 -242 299 -73 108
-141 263 -158 360 -2 17 -10 57 -16 90 -13 70 -16 262 -5 355 31 283 156 540
361 745 192 193 404 306 665 355 131 25 386 21 518 -9z m33 -3651 c0 -240 0
-349 0 -402 l-1 -43 -315 0 c-173 0 -315 2 -316 5 -1 8 -1 593 0 613 1 16 23
17 316 17 l315 0 1 -190z"/>
<path d="M7808 15045 c-2 -2 -36 -6 -77 -9 -148 -14 -401 -78 -521 -132 -254
-117 -412 -221 -583 -383 -333 -318 -529 -718 -586 -1191 -9 -81 -7 -347 4
-420 53 -354 171 -629 399 -930 43 -58 82 -107 85 -110 3 -3 35 -39 71 -80 36
-41 70 -79 76 -85 6 -5 35 -39 65 -75 30 -36 57 -67 60 -70 20 -16 102 -139
123 -183 58 -122 59 -128 61 -677 2 -443 4 -513 19 -569 41 -153 140 -290 271
-375 71 -46 114 -64 205 -87 74 -19 104 -20 482 -16 222 2 410 6 418 9 8 3 29
9 45 13 194 52 363 217 436 425 21 62 23 82 26 400 5 532 9 723 17 755 21 86
138 271 256 405 17 19 54 61 83 94 346 391 503 697 583 1136 10 59 13 411 3
470 -5 30 -12 75 -15 100 -3 25 -8 47 -9 50 -2 3 -6 24 -10 48 -3 23 -24 97
-46 164 -206 635 -728 1119 -1374 1273 -55 13 -122 27 -150 30 -27 4 -61 9
-75 12 -28 5 -337 12 -342 8z m410 -664 c399 -88 750 -387 895 -761 97 -251
117 -493 63 -765 -18 -91 -69 -219 -123 -308 -35 -60 -152 -221 -190 -262 -10
-11 -45 -52 -78 -90 -33 -39 -68 -79 -78 -90 -115 -125 -265 -339 -328 -468
l-39 -82 -401 0 -401 0 -45 90 c-76 152 -200 324 -356 495 -99 109 -252 297
-291 358 -39 61 -67 115 -109 212 -19 43 -43 139 -53 205 -3 28 -8 59 -10 70
-14 75 -2 320 21 425 4 14 8 34 10 46 23 107 93 265 171 384 196 300 514 504
871 560 98 15 365 4 471 -19z m37 -3776 c0 -203 -4 -315 -10 -316 -5 0 -148
-2 -318 -2 l-307 -2 0 318 0 317 318 0 317 0 0 -315z"/>
<path d="M12480 15034 c-562 -66 -1064 -377 -1377 -855 -65 -100 -155 -278
-193 -384 -22 -59 -75 -249 -85 -302 -27 -150 -40 -421 -24 -528 4 -27 10 -72
13 -100 14 -119 75 -327 132 -453 19 -41 34 -75 34 -77 0 -7 86 -154 129 -220
59 -91 214 -285 320 -400 65 -71 189 -224 219 -271 38 -60 77 -153 87 -209 5
-22 9 -263 11 -535 1 -272 5 -506 8 -519 52 -222 171 -377 359 -467 125 -59
168 -64 587 -64 429 0 466 5 600 72 157 79 276 224 328 402 20 65 21 96 22
560 0 384 4 503 15 551 35 149 69 199 399 589 122 144 296 386 296 412 0 3 8
18 18 32 77 113 186 439 207 617 3 28 8 66 11 85 6 36 6 292 0 345 -10 93 -18
150 -21 155 -2 3 -6 23 -9 45 -27 168 -144 468 -241 613 -19 30 -35 56 -35 58
0 16 -166 220 -238 292 -312 313 -687 497 -1137 558 -89 12 -327 11 -435 -2z
m325 -628 c531 -31 1007 -442 1130 -973 25 -105 30 -167 29 -318 -1 -152 -19
-261 -61 -380 -67 -186 -130 -277 -438 -635 -162 -188 -240 -299 -317 -450
l-48 -95 -401 0 -402 0 -38 81 c-73 154 -186 310 -399 549 -115 130 -199 233
-248 307 -68 99 -141 272 -157 368 -3 19 -9 55 -13 80 -9 56 -9 306 0 380 69
576 572 1048 1158 1087 47 3 86 7 88 8 2 2 11 1 20 -1 9 -1 53 -5 97 -8z m210
-3806 l0 -314 -318 -1 -317 0 0 318 0 317 318 -2 317 -3 0 -315z"/>
<path d="M7874 9325 c-146 -34 -240 -142 -251 -289 -22 -310 375 -458 565
-210 44 57 63 118 63 197 -1 194 -190 345 -377 302z"/>
<path d="M12652 9328 c-103 -15 -193 -82 -239 -176 -38 -78 -39 -193 -3 -267
96 -199 350 -246 509 -95 94 90 122 236 68 354 -60 131 -195 205 -335 184z"/>
<path d="M3075 9317 c-135 -54 -215 -165 -215 -296 0 -173 125 -308 295 -319
127 -8 236 54 301 170 26 48 29 62 28 143 0 105 -20 157 -85 223 -61 62 -119
85 -214 89 -46 1 -93 -3 -110 -10z"/>
<path d="M3050 8354 c-206 -93 -256 -355 -99 -513 123 -122 320 -124 444 -4
21 20 51 65 68 100 27 58 29 72 25 141 -5 87 -27 139 -86 204 -82 90 -239 123
-352 72z"/>
<path d="M7803 8349 c-121 -58 -189 -174 -180 -305 7 -90 39 -156 107 -217
202 -181 530 -28 522 244 -5 174 -133 300 -312 306 -66 2 -83 -2 -137 -28z"/>
<path d="M12598 8366 c-90 -35 -162 -106 -199 -196 -8 -20 -14 -67 -14 -110 1
-92 33 -168 97 -225 163 -147 404 -103 499 91 28 56 33 76 32 138 0 124 -70
234 -180 286 -60 28 -181 36 -235 16z"/>
<path d="M3105 7422 c-11 -2 -39 -13 -61 -23 -150 -67 -224 -245 -166 -396 82
-216 358 -278 518 -116 88 88 117 222 74 336 -31 82 -108 158 -186 184 -55 19
-133 25 -179 15z"/>
<path d="M4050 7419 c-103 -25 -203 -123 -230 -229 -27 -101 8 -224 84 -302
90 -92 232 -119 348 -65 155 70 225 228 173 390 -47 149 -217 243 -375 206z"/>
<path d="M4995 7417 c-138 -46 -226 -157 -228 -290 -2 -105 16 -158 80 -227
120 -134 324 -140 454 -13 156 151 110 418 -88 510 -63 29 -162 38 -218 20z"/>
<path d="M5950 7416 c-214 -57 -304 -316 -172 -492 122 -161 346 -173 487 -27
15 15 39 53 54 83 22 46 26 68 25 135 0 67 -4 88 -26 130 -49 92 -114 146
-203 170 -70 18 -104 18 -165 1z"/>
<path d="M6900 7417 c-211 -60 -299 -317 -170 -495 35 -48 116 -103 176 -118
142 -36 299 38 365 172 34 71 34 198 0 269 -32 63 -93 124 -154 153 -60 28
-156 36 -217 19z"/>
<path d="M7840 7413 c-96 -33 -171 -108 -204 -204 -21 -61 -15 -172 13 -230
86 -180 314 -239 474 -122 240 176 124 556 -173 569 -40 1 -83 -4 -110 -13z"/>
<path d="M8795 7414 c-211 -67 -289 -321 -153 -499 132 -173 404 -155 520 35
75 122 47 300 -62 397 -77 69 -208 98 -305 67z"/>
<path d="M9745 7414 c-134 -48 -226 -180 -220 -314 4 -89 32 -148 99 -215 121
-120 315 -119 440 2 122 118 122 323 1 447 -79 79 -221 115 -320 80z"/>
<path d="M10692 7411 c-68 -24 -118 -64 -164 -132 -117 -173 -21 -419 184
-473 148 -38 301 32 369 171 34 70 34 197 0 268 -32 63 -93 124 -154 153 -67
32 -167 37 -235 13z"/>
<path d="M11675 7421 c-92 -24 -180 -96 -218 -179 -17 -36 -22 -66 -22 -132 0
-74 4 -92 28 -140 82 -158 270 -220 426 -141 88 46 152 132 169 231 23 132
-50 275 -172 334 -58 29 -158 41 -211 27z"/>
<path d="M12615 7417 c-155 -52 -246 -183 -231 -336 26 -267 351 -381 538
-189 119 121 124 303 12 427 -81 90 -216 131 -319 98z"/>
<path d="M7865 6466 c-68 -17 -102 -36 -152 -87 -67 -67 -88 -119 -87 -219 0
-102 22 -158 86 -223 135 -134 359 -122 472 26 84 110 91 253 17 368 -69 110
-208 165 -336 135z"/>
<path d="M6936 5518 c-132 -19 -244 -131 -264 -264 -4 -27 -7 -917 -6 -1979 0
-1574 3 -1937 14 -1970 29 -87 94 -160 179 -199 46 -21 50 -21 1081 -21 l1035
0 51 27 c82 43 139 108 166 190 8 23 12 604 13 1992 1 1886 1 1960 -17 2013
-33 96 -118 178 -212 205 -45 13 -1953 19 -2040 6z m1634 -1103 c0 -261 -3
-475 -7 -476 -5 0 -290 -1 -636 -2 l-627 -2 0 478 0 477 635 0 635 0 0 -475z
m0 -1908 l0 -793 -632 1 -633 0 -3 793 -2 792 635 0 635 0 0 -793z"/>
</g>
</svg>
